<?xml version="1.0" encoding="UTF-8" standalone="no"?>
<!DOCTYPE svg PUBLIC "-//W3C//DTD SVG 1.1//EN" "http://www.w3.org/Graphics/SVG/1.1/DTD/svg11.dtd">
<svg width="100%" height="100%" viewBox="0 0 1400 1400" version="1.1" xmlns="http://www.w3.org/2000/svg" xmlns:xlink="http://www.w3.org/1999/xlink" xml:space="preserve" xmlns:serif="http://www.serif.com/" style="fill-rule:evenodd;clip-rule:evenodd;stroke-linecap:round;stroke-linejoin:round;stroke-miterlimit:10;">
    <g id="rustacean-flat-gesture--1-.svg" serif:id="rustacean-flat-gesture (1).svg" transform="matrix(1,0,0,1,99.4803,308.1)">
        <g transform="matrix(1,0,0,1,702.583,685.627)">
            <path d="M0,-322.648C-114.597,-322.648 -218.172,-308.869 -296.172,-286.419L-296.172,-291.49C-374.172,-266.395 -423.853,-231.531 -423.853,-192.984C-423.853,-186.907 -422.508,-180.922 -420.15,-175.053L-428.134,-160.732C-428.134,-160.732 -434.547,-152.373 -423.199,-134.733C-413.189,-119.179 -363.035,-58.295 -336.571,-26.413C-325.204,-10.065 -317.488,0 -316.814,-0.973C-315.753,-2.516 -323.878,-33.202 -346.453,-68.215C-356.986,-87.02 -369.811,-111.934 -377.361,-130.335C-356.28,-116.993 -328.172,-104.89 -296.172,-94.474L-296.172,-94.633C-218.172,-72.18 -114.597,-58.404 0,-58.404C131.156,-58.404 265.977,-82.672 344.977,-111.117L347.004,-311.945C268.004,-340.392 131.156,-322.648 0,-322.648" style="fill:rgb(165,43,0);fill-rule:nonzero;"/>
        </g>
        <g transform="matrix(1,0,0,1,1148.28,572.208)">
            <path d="M0,-50.399L-13.433,-78.227C-13.362,-79.283 -13.309,-80.341 -13.309,-81.402C-13.309,-112.95 -46.114,-142.022 -101.306,-165.303L-101.306,2.499C-75.555,-8.365 -54.661,-20.485 -39.72,-33.538C-44.118,-15.855 -59.157,19.917 -71.148,45.073C-90.855,81.054 -97.993,112.376 -97.077,113.926C-96.493,114.904 -89.77,104.533 -79.855,87.726C-56.783,54.85 -13.063,-7.914 -4.325,-23.901C5.574,-42.024 0,-50.399 0,-50.399" style="fill:rgb(165,43,0);fill-rule:nonzero;"/>
        </g>
        <g transform="matrix(1,0,0,1,1226.28,294.478)">
            <path d="M0,227.175L-88.296,162.132C-89.126,159.237 -89.956,156.345 -90.812,153.474L-61.81,111.458C-58.849,107.184 -58.252,101.629 -60.175,96.755C-62.1,91.905 -66.311,88.428 -71.292,87.576L-120.335,79.255C-122.233,75.376 -124.225,71.557 -126.224,67.771L-105.62,20.599C-103.501,15.793 -103.947,10.209 -106.759,5.848C-109.556,1.465 -114.31,-1.094 -119.376,-0.895L-169.146,0.914C-171.723,-2.442 -174.34,-5.766 -177.012,-9.032L-165.574,-59.592C-164.415,-64.724 -165.876,-70.1 -169.453,-73.83C-173.008,-77.546 -178.175,-79.084 -183.089,-77.88L-231.567,-65.961C-234.707,-68.736 -237.897,-71.474 -241.126,-74.157L-239.381,-126.064C-239.193,-131.318 -241.643,-136.311 -245.849,-139.227C-250.053,-142.161 -255.389,-142.603 -259.987,-140.423L-305.213,-118.921C-308.853,-121.011 -312.515,-123.081 -316.218,-125.084L-324.209,-176.232C-325.021,-181.413 -328.355,-185.816 -333.024,-187.826C-337.679,-189.848 -343.014,-189.193 -347.101,-186.116L-387.422,-155.863C-391.392,-157.181 -395.38,-158.446 -399.418,-159.655L-416.798,-208.159C-418.564,-213.104 -422.64,-216.735 -427.608,-217.756C-432.561,-218.768 -437.656,-217.053 -441.091,-213.217L-475.029,-175.246C-479.133,-175.717 -483.239,-176.147 -487.356,-176.505L-513.564,-220.659C-516.22,-225.131 -520.908,-227.852 -525.961,-227.852C-531.002,-227.852 -535.7,-225.131 -538.333,-220.659L-564.547,-176.505C-568.666,-176.147 -572.791,-175.717 -576.888,-175.246L-610.831,-213.217C-614.268,-217.053 -619.382,-218.768 -624.318,-217.756C-629.284,-216.721 -633.363,-213.104 -635.124,-208.159L-652.517,-159.655C-656.544,-158.446 -660.534,-157.173 -664.514,-155.863L-704.822,-186.116C-708.92,-189.204 -714.254,-189.857 -718.92,-187.826C-723.57,-185.816 -726.917,-181.413 -727.723,-176.232L-735.72,-125.084C-739.42,-123.081 -743.083,-121.022 -746.734,-118.921L-791.956,-140.423C-796.548,-142.612 -801.908,-142.161 -806.091,-139.227C-810.292,-136.311 -812.747,-131.318 -812.557,-126.064L-810.821,-74.157C-814.04,-71.474 -817.224,-68.736 -820.379,-65.961L-868.849,-77.88C-873.774,-79.075 -878.935,-77.546 -882.499,-73.83C-886.084,-70.1 -887.538,-64.724 -886.384,-59.592L-874.969,-9.032C-877.618,-5.753 -880.239,-2.442 -882.808,0.914L-932.579,-0.895C-937.602,-1.043 -942.396,1.465 -945.202,5.848C-948.014,10.209 -948.439,15.793 -946.348,20.599L-925.729,67.771C-927.732,71.557 -929.721,75.376 -931.635,79.255L-980.675,87.576C-985.657,88.417 -989.858,91.892 -991.795,96.755C-993.72,101.629 -993.095,107.184 -990.156,111.458L-961.146,153.474C-961.37,154.215 -961.576,154.964 -961.799,155.707L-1043.82,242.829C-1043.82,242.829 -1056.38,252.68 -1038.09,275.831C-1021.95,296.252 -939.097,377.207 -895.338,419.62C-876.855,441.152 -864.195,454.486 -862.872,453.332C-860.784,451.5 -871.743,412.326 -908.147,366.362C-936.207,325.123 -972.625,261.696 -964.086,254.385C-964.086,254.385 -954.372,242.054 -934.882,233.178C-934.169,233.749 -935.619,232.613 -934.882,233.178C-934.882,233.178 -523.568,422.914 -142.036,236.388C-98.452,228.571 -72.068,251.917 -72.068,251.917C-62.969,257.193 -86.531,322.412 -105.906,365.583C-132.259,414.606 -136.123,452.859 -133.888,454.185C-132.479,455.027 -122.89,440.438 -109.214,417.219C-75.469,370.196 -11.675,280.554 0,258.781C13.239,234.094 0,227.175 0,227.175" style="fill:rgb(247,76,0);fill-rule:nonzero;"/>
        </g>
        <g transform="matrix(1,0,0,1,326.829,229.059)">
            <g transform="matrix(1,0,0,1,-377.988,-220.195)">
                <path d="M130.144,309.697L295.982,309.697C284.936,353.771 248.022,383.133 248.022,383.133C266.802,429.681 377.898,472.931 377.898,472.931L355.439,523.575C204.138,444.256 198.462,378.558 198.462,378.558C163.728,353.289 142.292,330.289 130.144,309.697Z" style="fill:rgb(247,76,0);"/>
            </g>
            <g transform="matrix(1,0,0,1,-377.898,-219.891)">
                <path d="M218.291,309.697L130.144,309.697C83.448,230.544 173.986,186.981 173.986,186.981C171.946,265.07 218.172,309.664 218.172,309.664L218.291,305.726L218.291,309.697Z" style="fill:rgb(247,76,0);"/>
            </g>
        </g>
        <g transform="matrix(1,0,0,1,778.359,509.791)">
            <path d="M0,-87.016C0,-87.016 41.104,-132.025 82.21,-87.016C82.21,-87.016 114.507,-27.003 82.21,3C82.21,3 29.36,45.009 0,3C0,3 -35.232,-30.006 0,-87.016" style="fill-rule:nonzero;"/>
        </g>
        <g transform="matrix(1,0,0,1,825.947,439.464)">
            <path d="M0,0.008C0,17.531 -10.329,31.738 -23.07,31.738C-35.809,31.738 -46.139,17.531 -46.139,0.008C-46.139,-17.521 -35.809,-31.73 -23.07,-31.73C-10.329,-31.73 0,-17.521 0,0.008" style="fill:white;fill-rule:nonzero;"/>
        </g>
        <g transform="matrix(1,0,0,1,594.901,503.531)">
            <path d="M0,-93.046C0,-93.046 70.508,-124.265 89.753,-54.583C89.753,-54.583 109.912,26.635 31.851,31.219C31.851,31.219 -67.69,12.047 0,-93.046" style="fill-rule:nonzero;"/>
        </g>
        <g transform="matrix(1,0,0,1,630.314,440.619)">
            <path d="M0,0.002C0,18.074 -10.653,32.731 -23.794,32.731C-36.931,32.731 -47.586,18.074 -47.586,0.002C-47.586,-18.076 -36.931,-32.729 -23.794,-32.729C-10.653,-32.729 0,-18.076 0,0.002" style="fill:white;fill-rule:nonzero;"/>
        </g>
    </g>
    <g transform="matrix(1,0,0,1,79.8711,339.245)">
        <g transform="matrix(1,0,0,1,895.336,473.037)">
            <path d="M0,159.631C1.575,158.289 2.4,157.492 2.4,157.492L-132.25,144.985C-22.348,0 65.618,116.967 74.988,129.879L74.988,159.631L0,159.631Z" style="fill-rule:nonzero;"/>
        </g>
        <g transform="matrix(1,0,0,1,-128.684,20.1354)">
            <path d="M1120.82,638.742L1031.84,621.208C1032.39,620.42 1032.67,619.991 1032.67,619.991C934.352,593.987 897.675,615.341 897.675,615.341C1015.36,444.639 1098.42,596.12 1098.42,596.12L1124.1,590.102C1215.67,528.478 1230.39,469.835 1230.39,469.835L1268.36,469.835C1258.16,574.038 1144.5,628.485 1120.82,638.742Z" style="fill:rgb(247,76,0);"/>
        </g>
    </g>
    <g transform="matrix(1.09355,0,0,0.653406,367.269,207.817)">
        <g transform="matrix(1.5625,0,0,1.5625,0,0)">
            <path d="M493.714,374.857C483.657,374.857 475.428,366.628 475.428,356.571L475.428,324.571C475.428,225.828 409.599,138.057 319.999,109.714L319.999,99.657C319.999,90.514 311.77,82.286 302.628,82.286L209.371,82.286C200.228,82.286 192,90.515 192,99.657L192,109.714C102.4,137.143 36.571,221.257 36.571,320L36.571,356.571C36.571,366.628 28.342,374.857 18.285,374.857L0,374.857L0,429.714L512,429.714L512,374.857L493.714,374.857Z" style="fill:rgb(244,170,65);fill-rule:nonzero;"/>
        </g>
        <g transform="matrix(1.5625,0,0,1.5625,0,0)">
            <path d="M411.429,384L100.571,384C95.085,384 91.428,380.343 91.428,374.857C91.428,369.371 95.085,365.714 100.571,365.714L411.428,365.714C416.914,365.714 420.571,369.371 420.571,374.857C420.571,380.343 416.914,384 411.429,384" style="fill:rgb(181,128,36);fill-rule:nonzero;"/>
            <path d="M320,164.571C314.514,164.571 310.857,160.914 310.857,155.428L310.857,118.857C310.857,113.371 314.514,109.714 320,109.714C325.486,109.714 329.143,113.371 329.143,118.857L329.143,155.428C329.143,160.914 325.486,164.571 320,164.571" style="fill:rgb(181,128,36);fill-rule:nonzero;"/>
            <path d="M192,164.571C186.514,164.571 182.857,160.914 182.857,155.428L182.857,118.857C182.857,113.371 186.514,109.714 192,109.714C197.486,109.714 201.143,113.371 201.143,118.857L201.143,155.428C201.143,160.914 197.486,164.571 192,164.571" style="fill:rgb(181,128,36);fill-rule:nonzero;"/>
            <path d="M256,210.286C250.514,210.286 246.857,206.629 246.857,201.143L246.857,91.429C246.857,85.943 250.514,82.286 256,82.286C261.486,82.286 265.143,85.943 265.143,91.429L265.143,201.143C265.143,205.714 261.486,210.286 256,210.286" style="fill:rgb(181,128,36);fill-rule:nonzero;"/>
            <path d="M372.114,135.314L338.285,237.714L439.771,203.885C422.4,176.457 399.543,152.686 372.114,135.314Z" style="fill:rgb(181,128,36);fill-rule:nonzero;"/>
            <path d="M139.886,135.314L173.715,237.714L72.229,203.886C89.6,176.457 112.457,152.686 139.886,135.314Z" style="fill:rgb(181,128,36);fill-rule:nonzero;"/>
        </g>
    </g>
    <g transform="matrix(6.55175,-2.1662,2.1662,6.55175,-84.4951,292.247)">
        <g id="color">
            <path d="M11,57.697L60,57.697L60,11.909L15.999,11.909L11.999,15.909L11,57.697Z" style="fill:white;fill-rule:nonzero;"/>
            <path d="M55.002,60.909L11.999,60.909C11.447,60.909 11,60.462 11,59.911L11,16.908C11,16.356 11.447,15.909 11.999,15.909L55.002,15.909C55.553,15.909 56,16.356 56,16.908L56,59.911C56,60.462 55.553,60.909 55.002,60.909Z" style="fill:rgb(244,170,65);fill-rule:nonzero;"/>
        </g>
        <g id="line">
            <path d="M11,16.909L15.999,11.909L59.002,11.909C59.553,11.909 60,12.356 60,12.908L60,55.911C60,56.462 59.553,56.909 59.002,56.909" style="fill:none;fill-rule:nonzero;stroke:black;stroke-width:2px;"/>
            <path d="M55.002,60.909L11.999,60.909C11.447,60.909 11,60.462 11,59.911L11,16.908C11,16.356 11.447,15.909 11.999,15.909L55.002,15.909C55.553,15.909 56,16.356 56,16.908L56,59.911C56,60.462 55.553,60.909 55.002,60.909Z" style="fill:none;fill-rule:nonzero;stroke:black;stroke-width:2px;"/>
        </g>
        <g transform="matrix(2.0759,0,0,2.0759,-739.853,-1555.97)">
            <g transform="matrix(12,0,0,12,381.97,772.122)">
            </g>
            <text x="362.494px" y="772.122px" style="font-family:'TX-02-BookSemiCondensed', 'TX-02', monospace;font-weight:450;font-stretch:semi-condensed;font-size:12px;">FLS</text>
        </g>
    </g>
    <g transform="matrix(1,0,0,1,48.4108,317.268)">
        <path d="M218.291,305.726L222.401,169.247C295.404,220.798 305.035,273.027 295.321,311.787L218.142,311.518L218.291,305.726Z" style="fill:rgb(247,76,0);"/>
    </g>
    <g transform="matrix(5.36487,-0.401871,0.401871,5.36487,720.167,804.058)">
        <g id="color1" serif:id="color">
            <path d="M14.594,53.154L18.254,56.814L12.624,59.093L14.594,53.154Z" style="fill:rgb(63,63,63);fill-rule:nonzero;"/>
            <path d="M18.038,41.876L36.868,23.046L48.181,34.359L29.511,53.029" style="fill:rgb(244,170,65);fill-rule:nonzero;"/>
            <path d="M14.413,52.566L17.928,43.395L27.828,53.294L18.656,56.809" style="fill:rgb(165,121,57);fill-rule:nonzero;"/>
            <path d="M42.921,16.993L50.423,9.491L61.736,20.804L54.298,28.242" style="fill:rgb(234,90,71);fill-rule:nonzero;"/>
            <path d="M35.65,24.264L43.332,16.582L54.645,27.895L47.028,35.512" style="fill:rgb(155,155,154);fill-rule:nonzero;"/>
        </g>
        <g id="line1" serif:id="line">
            <path d="M18.63,56.82L27.828,53.294L53.821,27.301L43.921,17.402L17.928,43.395L14.39,52.603L18.63,56.82Z" style="fill:none;fill-rule:nonzero;stroke:black;stroke-width:2px;"/>
            <path d="M47.335,13.987L50.839,10.484L60.738,20.383L57.265,23.857" style="fill:none;fill-rule:nonzero;stroke:black;stroke-width:2px;"/>
            <path d="M18.556,42.767L28.456,52.666" style="fill:none;fill-rule:nonzero;stroke:black;stroke-width:2px;"/>
            <path d="M14.398,52.582L11.907,59.315L18.656,56.809" style="fill:none;fill-rule:nonzero;stroke:black;stroke-width:2px;"/>
            <path d="M36.91,25.007L46.423,34.52" style="fill:none;fill-rule:nonzero;stroke:black;stroke-width:2px;"/>
        </g>
    </g>
    <g transform="matrix(1,0,0,1,-48.8128,359.38)">
        <path d="M1032.93,619.327L1127.15,635.903C1124.38,637.102 1116.51,640.536 1116.51,640.536C983.646,791.839 896.333,687.09 896.333,687.09C980.28,689.05 1026.38,628.558 1032.93,619.327Z" style="fill:rgb(247,76,0);"/>
    </g>
</svg>
